<?xml version="1.0" encoding="UTF-8"?>
<svg id="Layer_2" data-name="Layer 2" xmlns="http://www.w3.org/2000/svg" viewBox="0 0 1425.89 281.28">
  <defs>
    <style>
      .cls-1 {
        fill: none;
        stroke: #000;
        stroke-linejoin: round;
        stroke-width: 5px;
      }
    </style>
  </defs>
  <g id="Layer_1-2" data-name="Layer 1">
    <g>
      <path class="cls-1" d="m152.28,68.05c-8.54,0-12.13-3.84-10.77-11.52l1.81-10.24c1.65-9.39-1.79-14.08-10.32-14.08h-31.75c-8.54,0-13.71,5.12-15.51,15.36l-2.26,12.8c-1.38,7.85,2.37,14.17,11.25,18.95l64.8,33.29c20.7,10.41,29.63,23.64,26.8,39.69l-2.75,15.62c-5.15,29.19-27.44,43.78-66.87,43.78h-61.71c-39.43,0-56.65-14.17-51.65-42.5l1.22-6.91c1.23-7,5.52-10.5,12.86-10.5h34.57c9.56,0,13.78,3.16,12.67,9.47l-3.07,17.41c-1.72,9.73,2.29,14.59,12.02,14.59h30.73c9.9,0,15.77-5.2,17.6-15.62l1.85-10.5c1.32-7.51-2.6-13.83-11.77-18.95l-66.29-33.54c-19.36-10.24-27.6-23.56-24.71-39.94l3.34-18.95c4.94-27.99,26.18-41.99,63.74-41.99h64.01c37.72,0,54.4,12.89,50.03,38.66l-.32,1.79c-1.63,9.22-6.45,13.83-14.47,13.83h-35.08Z"/>
      <path class="cls-1" d="m378.86,69.59c6.66,0,9.54,2.56,8.63,7.68-.87,4.95-4.3,7.43-10.27,7.43h-1.28l-14.76,83.73c-5.09,28.85-24.96,43.27-59.61,43.27h-43.53c-34.48,0-49.16-14.51-44.05-43.53l14.72-83.47h-1.28c-5.98,0-8.53-2.47-7.65-7.43.9-5.12,4.68-7.68,11.34-7.68h57.35c4.95,0,6.97,2.56,6.07,7.68-.87,4.95-3.45,7.43-7.71,7.43h-1.28l-16.98,96.27c-1.42,8.03,2.66,12.03,12.22,12.03h4.61c9.73,0,15.3-4.01,16.72-12.03l16.98-96.27h-1.28c-4.27,0-5.97-2.47-5.09-7.43.9-5.12,3.83-7.68,8.78-7.68h57.35Z"/>
      <path class="cls-1" d="m372.19,278.78c-6.66,0-9.49-2.82-8.5-8.45.96-5.46,4.43-8.19,10.41-8.19h1.28l31.06-176.16h-2.56c-5.98,0-8.48-2.73-7.52-8.19.96-5.46,4.6-8.19,10.92-8.19h91.67c38.41,0,54.65,16.82,48.72,50.44l-7.09,40.2c-5.9,33.46-28.23,50.19-66.97,50.19h-32.26l-9.12,51.72h1.28c5.97,0,8.48,2.73,7.52,8.19-.99,5.63-4.82,8.45-11.48,8.45h-57.35Zm73.17-91.15c-.54,3.07.47,4.61,3.03,4.61h15.62c8.53,0,14.43-9.22,17.68-27.65l8.62-48.91c3.25-18.44.61-27.65-7.93-27.65h-15.62c-2.56,0-4.13,1.62-4.7,4.86l-16.71,94.74Z"/>
      <path class="cls-1" d="m701.21,146.66h-74.51l-5.33,30.21c-1.05,5.98-.73,10.41.98,13.31,1.48,2.22,3.77,3.33,6.84,3.33h13.06c3.41,0,6.22-.94,8.44-2.82,2.35-1.7,4.16-6.15,5.42-13.31l.77-4.35c1.17-6.66,5.6-9.99,13.28-9.99h35.59c7.34,0,10.44,3.24,9.29,9.73l-.99,5.63c-3.91,22.19-23.11,33.29-57.59,33.29h-44.04c-36.87,0-52.04-18.52-45.51-55.56l5.96-33.8c6.35-36.01,27.36-54.03,63.04-54.03h44.55c36.19,0,51.09,18.1,44.71,54.28l-1.17,6.66c-2.05,11.61-9.64,17.41-22.79,17.41Zm-39.02-60.43h-14.34c-3.42,0-6.18,1.62-8.28,4.87-2.74,3.93-4.83,9.99-6.28,18.18l-2.53,14.34c-.54,3.07.47,4.61,3.03,4.61h28.17c2.73,0,4.37-1.54,4.91-4.61l2.53-14.34c1.54-8.71,1.65-14.68.34-17.92-1.45-3.41-3.96-5.12-7.55-5.12Z"/>
      <path class="cls-1" d="m740.15,210.41c-6.66,0-9.55-2.48-8.68-7.43.9-5.12,4.34-7.68,10.32-7.68h1.28l19.28-109.33h-2.56c-5.98,0-8.48-2.73-7.52-8.19.96-5.46,4.77-8.19,11.43-8.19h47.37c10.41,0,15.23,2.22,14.45,6.66l-2.21,12.55c5.55-6.31,11.76-11.31,18.64-14.98,6.88-3.67,15.35-5.5,25.42-5.5h3.33c4.44,0,6.39,1.54,5.84,4.61l-3.21,18.18c-.51,2.9-2.9,4.35-7.17,4.35h-2.56c-15.05.17-25.8,2.56-32.25,7.17-8,5.63-12.38,10.67-13.16,15.11l-13.68,77.58h1.28c5.97,0,8.51,2.56,7.61,7.68-.87,4.95-4.64,7.43-11.29,7.43h-61.96Z"/>
      <path class="cls-1" d="m1025.02,75.99c-7.17,0-10.15-3.41-8.95-10.24,2.44-13.83,2.61-23.04.52-27.65-1.98-4.27-6.21-6.4-12.7-6.4h-29.45c-5.98,0-10.74,2.3-14.28,6.91-3.95,4.95-7.42,15.96-10.43,33.03l-14.58,82.7c-2.74,15.54-3.14,26.03-1.2,31.49,1.83,5.12,5.9,7.68,12.22,7.68h30.21c6.83,0,12.33-3.16,16.52-9.47,3.06-4.78,6.14-15.96,9.24-33.54,1.23-7,5.44-10.5,12.61-10.5h38.15c7,0,9.9,3.42,8.69,10.24l-1.13,6.4c-6.47,36.7-30.11,55.05-70.9,55.05h-64.01c-39.95,0-56.14-21.42-48.58-64.27l12.24-69.39c7.55-42.84,31.3-64.27,71.25-64.27h64.27c39.43,0,56.66,15.54,51.7,46.6l-.63,3.58c-1.42,8.03-5.88,12.03-13.39,12.03h-37.38Z"/>
      <path class="cls-1" d="m1253.26,69.59c6.66,0,9.53,2.56,8.63,7.68-.87,4.95-4.3,7.43-10.27,7.43h-1.28l-14.76,83.73c-5.09,28.85-24.96,43.27-59.61,43.27h-43.53c-34.48,0-49.16-14.51-44.05-43.53l14.72-83.47h-1.28c-5.98,0-8.53-2.47-7.65-7.43.9-5.12,4.68-7.68,11.34-7.68h57.36c4.95,0,6.97,2.56,6.07,7.68-.87,4.95-3.45,7.43-7.71,7.43h-1.28l-16.98,96.27c-1.41,8.03,2.66,12.03,12.22,12.03h4.61c9.73,0,15.3-4.01,16.72-12.03l16.98-96.27h-1.28c-4.27,0-5.97-2.47-5.09-7.43.9-5.12,3.83-7.68,8.78-7.68h57.35Z"/>
      <path class="cls-1" d="m1256.85,210.41c-6.32,0-8.99-2.73-8.03-8.19.96-5.46,4.43-8.19,10.41-8.19h2.56l30.88-175.14h-2.56c-5.98,0-8.48-2.73-7.52-8.19.96-5.46,4.86-8.19,11.69-8.19h43.02c10.07,0,14.31,4.52,12.71,13.57l-9.44,53.51h32.77c38.41,0,54.71,16.48,48.9,49.42l-7.45,42.25c-5.78,32.77-27.62,49.16-65.51,49.16h-92.43Zm84.06-122.39c-2.39,0-3.83,1.37-4.31,4.1l-16.93,96.02c-.45,2.56.52,3.84,2.91,3.84h12.03c11.1,0,18.22-8.96,21.38-26.89l8.8-49.93c3.19-18.09-.76-27.14-11.86-27.14h-12.03Z"/>
    </g>
  </g>
</svg>