<?xml version="1.0" encoding="UTF-8"?>
<svg id="Layer_2" data-name="Layer 2" xmlns="http://www.w3.org/2000/svg" viewBox="0 0 1423.86 202.93">
  <defs>
    <style>
      .cls-1 {
        fill: none;
        stroke: #000;
        stroke-linejoin: round;
        stroke-width: 5px;
      }
    </style>
  </defs>
  <g id="Layer_1-2" data-name="Layer 1">
    <g>
      <path class="cls-1" d="m152.35,64.72c-7.17,0-10.15-3.41-8.95-10.24,2.44-13.83,2.61-23.04.52-27.65-1.98-4.27-6.21-6.4-12.7-6.4h-29.45c-5.98,0-10.74,2.3-14.28,6.91-3.95,4.95-7.42,15.96-10.43,33.03l-14.58,82.7c-2.74,15.54-3.14,26.03-1.2,31.49,1.83,5.12,5.9,7.68,12.22,7.68h30.21c6.83,0,12.33-3.16,16.52-9.47,3.06-4.78,6.14-15.96,9.24-33.54,1.23-7,5.44-10.5,12.61-10.5h38.15c7,0,9.9,3.42,8.69,10.24l-1.13,6.4c-6.47,36.7-30.11,55.05-70.9,55.05H52.89c-39.94,0-56.14-21.42-48.58-64.27l12.24-69.39C24.09,23.92,47.84,2.5,87.79,2.5h64.27c39.43,0,56.66,15.54,51.7,46.6l-.63,3.58c-1.42,8.03-5.88,12.03-13.39,12.03h-37.38Z"/>
      <path class="cls-1" d="m361.79,3.78c37.9,0,54.51,13.23,49.84,39.69l-3.34,18.95c-2.2,12.46-9.98,21.76-23.36,27.91,14.8,5.12,20.31,18.44,16.51,39.94l-4.24,24.07c-5.27,29.87-26.94,44.81-65,44.81h-126.23c-6.15,0-8.74-2.73-7.77-8.19.96-5.46,4.43-8.19,10.41-8.19h2.56l28.67-162.59h-2.56c-6.83,0-9.76-2.73-8.8-8.19.96-5.46,5.03-8.19,12.2-8.19h121.11Zm-33.81,98.84h-39.69c-3.25,0-5.18,1.79-5.81,5.38l-11.96,67.85c-.6,3.42.72,5.12,3.96,5.12h39.69c12.63,0,20.23-7.25,22.79-21.76l6.1-34.57c2.59-14.68-2.43-22.02-15.07-22.02Zm-25.51-80.4c-3.25,0-5.18,1.79-5.81,5.38l-9.07,51.47c-.6,3.42.72,5.12,3.96,5.12h37.13c10.92,0,17.34-5.38,19.23-16.13l5.19-29.45c1.93-10.92-2.58-16.39-13.5-16.39h-37.13Z"/>
      <path class="cls-1" d="m417.98,199.15c-6.66,0-9.55-2.48-8.68-7.43.9-5.12,4.34-7.68,10.32-7.68h1.28l28.9-163.87h-2.56c-6.83,0-9.76-2.73-8.8-8.19.96-5.46,5.03-8.19,12.2-8.19h119.32c41.14,0,59.24,14,54.3,41.99l-5.73,32.52c-2.92,16.56-12.68,28.34-29.28,35.33l12.65,69.13h6.91c6.15,0,8.74,2.73,7.77,8.19-.96,5.46-4.86,8.19-11.69,8.19h-46.86c-7.68,0-12.13-3.84-13.33-11.52l-10.45-67.09h-44.04l-11.2,63.5h1.28c5.97,0,8.51,2.56,7.61,7.68-.87,4.95-4.64,7.43-11.3,7.43h-58.63Zm94.44-176.93c-3.25,0-5.15,1.62-5.72,4.86l-12.42,70.41c-.54,3.07.81,4.61,4.05,4.61h35.59c14,0,22.21-6.91,24.65-20.74l6.73-38.15c2.47-13.99-3.3-21-17.29-21h-35.59Z"/>
      <path class="cls-1" d="m804.61,53.97h-33.8c-8.54,0-12.16-3.67-10.86-11.01l1.17-6.66c1.81-10.24-1.05-15.36-8.56-15.36h-24.84c-7.51,0-12.23,5.47-14.16,16.39l-6,34.06h49.16c39.77,0,56.83,16.05,51.17,48.14l-5.64,32.01c-5.75,32.61-26.04,48.91-60.86,48.91h-60.94c-36.7,0-52.15-16.47-46.34-49.42l13.18-74.77c4.76-26.97,11.96-45.58,21.62-55.82,11.32-11.95,26.72-17.92,46.18-17.92h49.16c41.48,0,60.25,11.18,56.31,33.54l-1.17,6.66c-1.33,7.51-6.25,11.27-14.79,11.27Zm-64.78,114.71l11.56-65.55c1.54-8.71-1.63-13.06-9.48-13.06h-37.64l-13.86,78.61c-1.54,8.71,1.37,13.06,8.71,13.06h27.4c7.34,0,11.78-4.35,13.31-13.06Z"/>
      <path class="cls-1" d="m983.04,22.22h-55.82l-9.57,54.28h36.87c37.21,0,53.52,13.06,48.91,39.18l-5.73,32.52c-2.98,16.9-9.96,29.87-20.95,38.92-10.78,8.87-25.14,13.31-43.06,13.31h-59.4c-18.61,0-31.77-3.76-39.49-11.27-7.49-7.85-9.88-19.46-7.17-34.82l1.54-8.71c1.32-7.51,6.42-11.27,15.3-11.27h32.78c8.87,0,12.67,3.67,11.37,11.01l-2.98,16.9c-2.23,12.63.5,18.95,8.18,18.95h26.63c8.02,0,13.18-6.49,15.47-19.46l8.89-50.44c1.84-10.41-3.13-15.62-14.91-15.62h-72.46c-10.75,0-15.33-4.52-13.74-13.57l11.11-62.99c1.81-10.24,8.34-15.36,19.61-15.36h131.61c6.83,0,9.65,3.33,8.48,9.99l-2.84,16.13c-1.05,5.98-6.53,8.96-16.43,8.96s-14.55-3.16-13.44-9.47l1.26-7.17Z"/>
      <path class="cls-1" d="m1030.16,113.63l4.2-23.81c5.72-32.43,14.29-54.88,25.7-67.34,12.08-13.31,30.66-19.97,55.75-19.97h35.34c25.43,0,41.93,6.66,49.48,19.97,7.22,12.29,7.96,34.74,2.21,67.34l-4.2,23.81c-5.84,33.12-14.51,55.65-26,67.6-12.5,12.8-31.29,19.2-56.39,19.2h-35.34c-24.92,0-41.21-6.4-48.85-19.2-7.08-12.12-7.72-34.65-1.91-67.6Zm55.79,20.48c-3.25,18.44-4.37,31.07-3.35,37.9,1.15,7,4.63,10.5,10.44,10.5h18.44c5.8,0,10.4-3.33,13.8-9.99,3.53-6.49,6.99-19.29,10.36-38.41l11.42-64.78c3.52-19.97,4.66-33.2,3.41-39.69-1.31-6.15-4.78-9.22-10.41-9.22h-18.18c-5.29,0-9.76,3.07-13.4,9.22-3.88,6.49-7.56,19.63-11.05,39.43l-11.47,65.04Z"/>
      <path class="cls-1" d="m1214.29,199.15c-6.66,0-9.55-2.48-8.68-7.43.9-5.12,4.34-7.68,10.32-7.68h1.28l28.9-163.87h-2.56c-6.83,0-9.76-2.73-8.8-8.19.96-5.46,5.03-8.19,12.2-8.19h119.32c41.14,0,59.24,14,54.3,41.99l-5.73,32.52c-2.92,16.56-12.68,28.34-29.28,35.33l12.65,69.13h6.91c6.15,0,8.74,2.73,7.77,8.19-.96,5.46-4.86,8.19-11.69,8.19h-46.86c-7.68,0-12.13-3.84-13.33-11.52l-10.45-67.09h-44.04l-11.2,63.5h1.28c5.97,0,8.51,2.56,7.61,7.68-.87,4.95-4.64,7.43-11.3,7.43h-58.63Zm94.44-176.93c-3.25,0-5.15,1.62-5.72,4.86l-12.42,70.41c-.54,3.07.81,4.61,4.05,4.61h35.59c14,0,22.21-6.91,24.65-20.74l6.73-38.15c2.47-13.99-3.3-21-17.29-21h-35.59Z"/>
    </g>
  </g>
</svg>