<?xml version="1.0" encoding="UTF-8"?>
<svg id="Layer_2" data-name="Layer 2" xmlns="http://www.w3.org/2000/svg" viewBox="0 0 1596.85 214.19">
  <defs>
    <style>
      .cls-1 {
        fill: none;
        stroke: #000;
        stroke-linejoin: round;
        stroke-width: 5px;
      }
    </style>
  </defs>
  <g id="Layer_1-2" data-name="Layer 1">
    <g>
      <path class="cls-1" d="m174.82,15.05c7.68,0,12.13,4.27,13.36,12.8l24.24,167.46h4.87c6.15,0,8.77,2.56,7.86,7.68-.87,4.95-4.64,7.43-11.29,7.43h-69.39c-6.49,0-9.29-2.48-8.42-7.43.9-5.12,4.25-7.68,10.06-7.68h1.02l-3.74-28.17h-74l-14.44,28.17c5.63,0,8,2.56,7.09,7.68-.87,4.95-4.81,7.43-11.81,7.43H11.58c-6.83,0-9.81-2.48-8.93-7.43.9-5.12,4.34-7.68,10.32-7.68h5.38L101.78,31.43h-3.84c-6.66,0-9.51-2.73-8.54-8.19.96-5.46,5.11-8.19,12.46-8.19h72.97Zm-95.11,131.35h60.68l-13.13-93.97-47.55,93.97Z"/>
      <path class="cls-1" d="m240.75,210.41c-6.66,0-9.55-2.48-8.68-7.43.9-5.12,4.34-7.68,10.32-7.68h1.28l19.05-108.05h-21c-6.14,0-8.69-2.98-7.64-8.96,1.08-6.15,4.7-9.22,10.84-9.22h21l4.47-25.35c4.85-27.48,23.48-41.22,55.92-41.22h45.58c6.83,0,9.7,3.07,8.62,9.22-1.08,6.15-5.04,9.22-11.87,9.22h-15.62c-11.44,0-18.13,5.55-20.09,16.64l-5.55,31.49h30.47c6.31,0,8.93,3.07,7.85,9.22-1.05,5.98-4.74,8.96-11.05,8.96h-30.47l-19.05,108.05h1.28c5.97,0,8.51,2.56,7.61,7.68-.87,4.95-4.64,7.43-11.29,7.43h-61.96Z"/>
      <path class="cls-1" d="m363.65,210.41c-6.66,0-9.55-2.48-8.68-7.43.9-5.12,4.34-7.68,10.32-7.68h1.28l19.28-109.33h-2.56c-5.98,0-8.48-2.73-7.52-8.19.96-5.46,4.77-8.19,11.43-8.19h47.37c10.41,0,15.23,2.22,14.45,6.66l-2.21,12.55c5.55-6.31,11.76-11.31,18.64-14.98,6.88-3.67,15.35-5.5,25.42-5.5h3.33c4.44,0,6.39,1.54,5.84,4.61l-3.21,18.18c-.51,2.9-2.9,4.35-7.17,4.35h-2.56c-15.05.17-25.8,2.56-32.25,7.17-8,5.63-12.38,10.67-13.16,15.11l-13.68,77.58h1.28c5.97,0,8.51,2.56,7.61,7.68-.87,4.95-4.64,7.43-11.3,7.43h-61.96Z"/>
      <path class="cls-1" d="m494.23,210.41c-6.66,0-9.55-2.48-8.68-7.43.9-5.12,4.34-7.68,10.32-7.68h1.28l19.28-109.33h-2.56c-5.98,0-8.48-2.73-7.52-8.19.96-5.46,4.77-8.19,11.43-8.19h47.37c10.41,0,14.82,4.52,13.23,13.57l-19.78,112.15h1.28c5.97,0,8.51,2.56,7.61,7.68-.87,4.95-4.64,7.43-11.3,7.43h-61.96Zm92.7-172.83c-1.69,9.56-8.33,14.34-19.94,14.34h-27.91c-11.44,0-16.31-4.78-14.63-14.34l3.61-20.48c1.72-9.73,8.29-14.59,19.73-14.59h27.91c11.61,0,16.55,4.87,14.84,14.59l-3.61,20.48Z"/>
      <path class="cls-1" d="m667.28,68.31h45.07c33.8,0,48.41,12.97,43.83,38.92l-.99,5.63c-1.14,6.49-5.3,9.73-12.47,9.73h-35.08c-8.19,0-11.7-3.33-10.53-9.99l.68-3.84c1.56-8.87,1.69-14.94.39-18.18-1.2-2.9-3.58-4.35-7.17-4.35h-13.83c-3.58,0-6.53,1.71-8.84,5.12-2.28,3.24-4.16,9.05-5.63,17.41l-10.56,59.92c-1.6,9.05-1.82,15.62-.66,19.72.93,3.42,3.11,5.12,6.52,5.12h14.85c3.75,0,6.77-1.62,9.05-4.86,2.57-3.92,4.67-10.5,6.29-19.72l1.4-7.94c1.26-7.17,5.82-10.75,13.67-10.75h34.05c8.19,0,11.72,3.24,10.57,9.73l-1.08,6.15c-5.36,30.39-25.88,45.58-61.55,45.58h-42.5c-37.56,0-53.1-18.35-46.62-55.05l6.05-34.31c6.35-36.01,28.05-54.03,65.09-54.03Z"/>
      <path class="cls-1" d="m809.94,210.41c-30.21,0-43.08-12.71-38.59-38.15l3.66-20.74c4.48-25.43,22.17-38.15,53.07-38.15h46.35l1.85-10.5c1.9-10.75-4.24-16.13-18.41-16.13h-49.42c-6.83,0-9.7-3.07-8.62-9.22,1.08-6.14,4.87-9.22,11.36-9.22h63.76c21.85,0,37.39,3.84,46.62,11.52,9.12,7.34,12.32,18.69,9.61,34.05l-14.13,80.14h2.56c5.97,0,8.48,2.73,7.52,8.19-.96,5.46-4.61,8.19-10.92,8.19h-106.26Zm60.51-74.51c.48-2.73-.73-4.1-3.63-4.1h-16.9c-8.88,0-14.26,5.38-16.16,16.13l-4.92,27.91c-1.9,10.75,1.59,16.13,10.47,16.13h16.9c2.9,0,4.58-1.28,5.03-3.84l9.21-52.23Z"/>
      <path class="cls-1" d="m1001.46,210.41c-6.66,0-9.55-2.48-8.68-7.43.9-5.12,4.34-7.68,10.32-7.68h1.28l28.53-161.82h-36.36l-1.26,7.17c-1.11,6.32-6.62,9.47-16.52,9.47s-14.58-2.98-13.53-8.96l2.84-16.13c1.17-6.66,5-9.99,11.49-9.99h173.86c6.83,0,9.66,3.33,8.48,9.99l-2.84,16.13c-1.05,5.98-6.53,8.96-16.43,8.96s-14.55-3.16-13.44-9.47l1.26-7.17h-36.1l-28.54,161.82h1.28c5.97,0,8.51,2.56,7.61,7.68-.87,4.95-4.64,7.43-11.3,7.43h-61.96Z"/>
      <path class="cls-1" d="m1332.02,69.59c6.83,0,9.79,2.56,8.89,7.68-.87,4.95-4.38,7.43-10.53,7.43h-4.87l-49.48,116.5c-2.62,6.15-6.66,9.22-12.12,9.22h-20.74c-5.29,0-8-3.07-8.1-9.22l-6.8-81.94-29.86,82.19c-2.59,5.97-6.45,8.96-11.57,8.96h-30.21c-5.12,0-7.75-2.99-7.89-8.96l-8.35-116.76h-5.12c-5.97,0-8.53-2.47-7.65-7.43.9-5.12,4.68-7.68,11.34-7.68h56.59c4.95,0,6.97,2.56,6.07,7.68-.87,4.95-3.45,7.43-7.71,7.43l3.01,51.21,21.68-61.96c1.02-2.9,2.82-4.35,5.38-4.35h26.37c2.39,0,3.65,1.54,3.8,4.61l5.15,68.11,23.99-57.61c-4.1,0-5.71-2.47-4.84-7.43.9-5.12,3.92-7.68,9.04-7.68h44.55Z"/>
      <path class="cls-1" d="m1332.28,210.41c-6.66,0-9.55-2.48-8.68-7.43.9-5.12,4.34-7.68,10.32-7.68h1.28l19.28-109.33h-2.56c-5.98,0-8.48-2.73-7.52-8.19.96-5.46,4.77-8.19,11.43-8.19h47.37c10.41,0,14.82,4.52,13.23,13.57l-19.77,112.15h1.28c5.97,0,8.51,2.56,7.61,7.68-.87,4.95-4.64,7.43-11.29,7.43h-61.96Zm92.7-172.83c-1.69,9.56-8.33,14.34-19.94,14.34h-27.91c-11.44,0-16.31-4.78-14.63-14.34l3.61-20.48c1.72-9.73,8.29-14.59,19.73-14.59h27.91c11.61,0,16.55,4.87,14.84,14.59l-3.61,20.48Z"/>
      <path class="cls-1" d="m1547.61,69.59c36.19,0,51.36,16.56,45.52,49.67l-13.41,76.05h1.28c5.97,0,8.51,2.56,7.61,7.68-.87,4.95-4.64,7.43-11.29,7.43h-57.35c-6.66,0-9.55-2.48-8.68-7.43.9-5.12,4.34-7.68,10.32-7.68h1.28l14.18-80.4c3.16-17.92.04-26.89-9.34-26.89h-19.46l-18.92,107.29h1.28c5.97,0,8.51,2.56,7.61,7.68-.87,4.95-4.64,7.43-11.3,7.43h-57.35c-6.66,0-9.55-2.48-8.68-7.43.9-5.12,4.34-7.68,10.32-7.68h1.28l19.28-109.33h-2.56c-5.98,0-8.48-2.73-7.52-8.19.96-5.46,4.6-8.19,10.92-8.19h95Z"/>
    </g>
  </g>
</svg>